<?xml version="1.0" encoding="UTF-8" standalone="no"?>
<!-- Created with Inkscape (http://www.inkscape.org/) -->
<svg id="svg2" xmlns="http://www.w3.org/2000/svg" xml:space="preserve" height="402.18" width="318.22" version="1.0"><path id="exclusion-zone" d="m68.594 131.05h253.79v320.74h-253.79l0.004-320.74z" transform="matrix(1.2539 0 0 -1.2539 -86.01 566.5)" fill="none" /><path id="FT-Pink" d="m235.49 557.07v178.94h178.93v-178.94h-178.93z" transform="matrix(0 -1.25 -1.25 0 966.62 565.99)" fill="#fcd0af"/><path id="FT" d="m-39.227 479.81c0-8.45 2.254-9.39 11.882-9.75v-3.09h-38.269v3.09c7.961 0.36 10.219 1.3 10.219 9.75v55.14c0 8.45-2.258 9.4-9.981 9.75v3.09h67.504l0.4805-17.82h-3.329c-2.851 9.03-5.945 11.88-21.752 11.88h-12.248c-3.675 0-4.507-0.83-4.507-4.16v-25.56h6.031c12.601 0 15.336 2.27 16.879 10.71h3.09v-28.53h-3.09c-1.66 9.51-6.418 11.88-16.879 11.88h-6.031v-26.38zm117.8 67.98h-70.84l-1.6445-17.83h4.0635c2.593 8.73 6.406 11.89 14.933 11.89h9.985v-62.04c0-8.45-2.258-9.39-11.407-9.75v-3.09h38.985v3.09c-9.153 0.36-11.41 1.3-11.41 9.75v62.04h9.98c8.531 0 12.348-3.16 14.937-11.89h4.059l-1.641 17.83z" transform="matrix(1.25 0 0 -1.25 152.85 764.45)" fill="#3e474f"/><path id="FinancialTimes" d="m-78.555 364.24c0-2.16 0.582-2.4 3.043-2.5v-0.77h-9.797v0.77c2.035 0.1 2.617 0.34 2.617 2.5v14.12c0 2.17-0.582 2.41-2.563 2.5v0.79h17.297l0.117-4.56h-0.851c-0.731 2.31-1.52 3.04-5.57 3.04h-3.137c-0.942 0-1.156-0.21-1.156-1.07v-6.54h3.535c3.226 0 3.925 0.58 4.32 2.74h0.793v-7.31h-0.793c-0.426 2.44-1.645 3.05-4.32 3.05h-3.535v-6.76zm20.398 0c0-2.16 0.574-2.4 3.043-2.5v-0.77h-10.231v0.77c2.473 0.1 3.043 0.34 3.043 2.5v14.12c0 2.17-0.57 2.41-3.043 2.5v0.79h10.231v-0.79c-2.469-0.09-3.043-0.33-3.043-2.5v-14.12zm24.383 13.54c0 2.01-0.551 2.83-2.805 3.08v0.79h7.305v-0.79c-2.25-0.25-2.797-1.07-2.797-3.08v-17.32h-1.035l-14.121 16.32v-11.96c0-2.01 0.543-2.83 2.797-3.08v-0.77h-7.309v0.77c2.254 0.25 2.801 1.07 2.801 3.08v13.93c-0.699 1.23-1.524 1.81-2.801 2.11v0.79h5.633l12.332-14.25v10.38zm11.047-9.4l3.105 8.19 3.078-8.19h-6.183zm14.824-7.41v0.77c-1.551-0.03-1.945 0.64-2.7375 2.59l-7.278 17.81h-1l-7.582-18.45c-0.519-1.28-1.219-1.67-2.527-1.95v-0.77h6.574v0.77c-1.43 0-2.129 0.31-2.129 1.31 0 0.85 0.946 3.14 1.184 3.81h7.492c0.242-0.67 1.246-2.96 1.246-3.81 0-1-0.758-1.31-2.191-1.31v-0.77h8.9485zm20.062 16.81c0 2.01-0.546 2.83-2.7965 3.08v0.79h7.3045v-0.79c-2.254-0.25-2.804-1.07-2.804-3.08v-17.32h-1.032l-14.126 16.32 0.0005-11.96c0-2.01 0.54703-2.83 2.801-3.08v-0.77h-7.309v0.77c2.254 0.25 2.805 1.07 2.805 3.08v13.93c-0.703 1.23-1.527 1.81-2.805 2.11v0.79h5.633l12.328-14.25 0.001 10.38zm26.137-11.95c-2.164-3.69-4.996-5.37-9.289-5.37-6.727 0-10.715 4.42-10.715 11.03 0 4.71 3.715 10.65 10.93 10.65 2.16 0 5.23-1.22 5.691-1.22 0.606 0 0.789 0.33 1.282 1.22h1.031l0.429-6.91h-0.914c-1.222 3.2-3.378 5.51-7.003 5.51-4.872 0-7-5.27-7-9.25 0-5.58 2.402-9.32 7.55-9.32 4.016 0 6.239 2.98 7.184 4.29l0.824-0.63zm10.024-1.59c0-2.16 0.582-2.4 3.046-2.5v-0.77h-10.23v0.77c2.469 0.1 3.047 0.34 3.047 2.5v14.12c0 2.17-0.578 2.41-3.047 2.5v0.79h10.23v-0.79c-2.464-0.09-3.046-0.33-3.046-2.5v-14.12zm11.523 4.14l3.105 8.19 3.075-8.19h-6.18zm14.828-7.41v0.77c-1.555-0.03-1.949 0.64-2.738 2.59l-7.278 17.81h-1.003l-7.582-18.45c-0.52-1.28-1.219-1.67-2.528-1.95v-0.77h6.574v0.77c-1.429 0-2.128 0.31-2.128 1.31 0 0.85 0.945 3.14 1.187 3.81h7.488c0.242-0.67 1.246-2.96 1.246-3.81 0-1-0.761-1.31-2.191-1.31v-0.77h8.953zm1.809 0v0.77c1.98 0.09 2.558 0.34 2.558 2.5v14.12c0 2.17-0.578 2.41-2.558 2.5v0.79h9.558v-0.79c-2.281-0.09-2.863-0.33-2.863-2.5v-14.52c0-1.25 0.367-1.67 2.68-1.67 3.715 0 5.906 0.67 7.672 4.32h0.793l-1.399-5.52h-16.441zm-157.25-32.62c2.351 0.1 2.925 0.34 2.925 2.5v15.89h-2.554c-2.406 0-3.352-0.97-4.02-3.77h-0.914l0.488 5.29h18.141l0.488-5.29h-0.918c-0.664 2.8-1.609 3.77-4.011 3.77h-2.559v-15.89c0-2.16 0.578-2.4 2.918-2.5v-0.77h-9.984v0.77zm23.867 2.5c0-2.16 0.582-2.4 3.047-2.49v-0.78h-10.231v0.78c2.473 0.09 3.047 0.33 3.047 2.49v14.13c0 2.16-0.574 2.4-3.047 2.49v0.8h10.231v-0.8c-2.465-0.09-3.047-0.33-3.047-2.49v-14.13zm24.777 17.41h7.125v-0.79c-1.98-0.09-2.554-0.33-2.554-2.49v-14.13c0-2.16 0.574-2.4 2.554-2.5v-0.77h-9.316v0.77c2.039 0.1 2.621 0.34 2.621 2.5v14.55h-0.063l-6.91-18.08h-0.945l-6.754 18.08h-0.062v-13.97c0-2.01 0.546-2.83 2.8-3.08v-0.77h-7.304v0.77c2.25 0.25 2.797 1.07 2.797 3.08v14.06c0 1.43-0.606 1.98-2.797 1.98v0.79h7.519l5.508-14.36 5.781 14.36zm10.063-20.68v0.77c1.976 0.1 2.554 0.34 2.554 2.5v14.13c0 2.16-0.578 2.4-2.554 2.49v0.79h17.288l0.1215-4.56h-0.848c-0.734 2.31-1.527 3.04-5.5735 3.04h-3.133c-0.949 0-1.156-0.21-1.156-1.06v-6.55h3.527c3.2265 0 3.9255 0.58 4.3245 2.74h0.792v-7.3h-0.792c-0.43 2.43-1.645 3.04-4.3245 3.04h-3.527v-7.16c0-1.24 0.363-1.67 4.016-1.67 3.7105 0 5.9055 0.67 7.6705 4.33h0.79l-1.399-5.53h-17.776zm21.867 6.5h0.797c0.87897-2.74 3.5-5.6 6.547-5.6 2.613 0 3.5585 1.82 3.5585 3.44 0 4.75-10.715 5.63-10.715 11.53-0.00047 2.86 2.7695 5.3 5.9335 5.3 3.105 0 4.1995-1.09 5.5745-1.09 0.578 0 0.942 0.45 1.094 1.09h0.793v-6.57h-0.793c-0.852 2.98-2.9805 5.17-5.7855 5.17-2.309 0-3.168-1.49-3.168-2.9 0-4.22 10.72-4.35 10.72-11.62-0.001-3.25-2.677-5.75-6.3965-5.75-3.652 0-4.594 1.27-6.027 1.27-0.543 0-0.914-0.36-1.032-1.03h-1.101l0.00003 6.76z" transform="matrix(1.25 0 0 -1.25 152.85 764.45)" fill="#3e474f"/></svg>
